<svg xmlns="http://www.w3.org/2000/svg" id="icon-grip-horizontal" fill="currentColor" viewBox="0 0 16 16">
    <!-- The MIT License (MIT) -->
    <!-- Copyright (c) 2011-2024 The Bootstrap Authors -->
    <path d="M2 8a1 1 0 1 1 0 2 1 1 0 0 1 0-2m0-3a1 1 0 1 1 0 2 1 1 0 0 1 0-2m3 3a1 1 0 1 1 0 2 1 1 0 0 1 0-2m0-3a1 1 0 1 1 0 2 1 1 0 0 1 0-2m3 3a1 1 0 1 1 0 2 1 1 0 0 1 0-2m0-3a1 1 0 1 1 0 2 1 1 0 0 1 0-2m3 3a1 1 0 1 1 0 2 1 1 0 0 1 0-2m0-3a1 1 0 1 1 0 2 1 1 0 0 1 0-2m3 3a1 1 0 1 1 0 2 1 1 0 0 1 0-2m0-3a1 1 0 1 1 0 2 1 1 0 0 1 0-2"/>
</svg>